<?xml version="1.0"?>
<svg xmlns="http://www.w3.org/2000/svg" id="_01-computer" data-name="01-computer" viewBox="0 0 64 64" width="512" height="512"><path d="M56,7V45H8V5H56ZM51,29V11H35V29ZM31,20a9,9,0,1,0-9,9A9,9,0,0,0,31,20Z" style="fill:#e6f7ff"/><polygon points="63 45 63 51 40 51 24 51 1 51 1 45 8 45 56 45 63 45" style="fill:#cbdbe6"/><rect x="56" y="7" width="7" height="38" style="fill:#82e4e9"/><rect x="51" y="1" width="5" height="4" style="fill:#c7ced1"/><polygon points="51 25 51 29 35 29 35 25 39 25 43 25 47 25 51 25" style="fill:#66b2ff"/><polygon points="47 25 43 25 39 25 35 25 35 11 51 11 51 25 47 25" style="fill:#fec356"/><rect x="14" y="1" width="37" height="4" style="fill:#cbdbe6"/><path d="M46,60v2a1,1,0,0,1-1,1H19a1,1,0,0,1-1-1V60a1,1,0,0,1,1-1H45A1,1,0,0,1,46,60Z" style="fill:#83939c"/><polygon points="40 51 42 59 22 59 24 51 40 51" style="fill:#c7ced1"/><path d="M31,20H22V11A9,9,0,0,1,31,20Z" style="fill:#fec356"/><path d="M22,20h9a9,9,0,1,1-9-9Z" style="fill:#66b2ff"/><rect x="8" y="1" width="6" height="4" style="fill:#c7ced1"/><rect x="1" y="7" width="7" height="38" style="fill:#82e4e9"/><path d="M40,51H24l-.5,2h17Z" style="fill:#83939c"/><rect x="56.031" y="7" width="2.866" height="38" style="fill:#00cdce"/><rect x="13" y="1" width="2" height="4" style="fill:#83939c"/><rect x="50" y="1" width="2" height="4" style="fill:#83939c"/><rect x="38" y="17" width="2" height="8" style="fill:#fdb052"/><rect x="42" y="14" width="2" height="11" style="fill:#fdb052"/><rect x="46" y="19" width="2" height="6" style="fill:#fdb052"/><rect x="27" y="34" width="25" height="2" style="fill:#cbdbe6"/><rect x="13" y="38" width="39" height="2" style="fill:#cbdbe6"/><rect x="13" y="34" width="2" height="2" style="fill:#cbdbe6"/><rect x="17" y="34" width="2" height="2" style="fill:#cbdbe6"/><rect x="21" y="34" width="4" height="2" style="fill:#cbdbe6"/></svg>
